<?xml version="1.0" standalone="no"?>
<!DOCTYPE svg PUBLIC "-//W3C//DTD SVG 20010904//EN"
 "http://www.w3.org/TR/2001/REC-SVG-20010904/DTD/svg10.dtd">
<svg version="1.0" xmlns="http://www.w3.org/2000/svg"
 width="593.000000pt" height="593.000000pt" viewBox="0 0 593.000000 593.000000"
 preserveAspectRatio="xMidYMid meet">
<metadata>
Created by potrace 1.14, written by Peter Selinger 2001-2017
</metadata>
<g transform="translate(0.000000,593.000000) scale(0.100000,-0.100000)"
fill="#000000" stroke="none">
<path d="M2549 4783 c-9 -2 -25 -19 -35 -38 -10 -19 -22 -35 -27 -35 -4 0 -5
-5 -2 -10 4 -6 2 -17 -5 -24 -6 -8 -12 -30 -14 -49 -4 -44 -24 -67 -51 -56
-11 4 -50 8 -87 8 -38 1 -68 4 -68 9 0 8 -255 6 -317 -3 -24 -3 -43 -11 -43
-16 0 -6 -4 -7 -10 -4 -5 3 -18 2 -28 -4 -36 -19 -114 31 -182 116 -15 19 -42
34 -95 54 -34 13 -125 18 -125 7 0 -5 -7 -8 -16 -8 -9 0 -25 -10 -36 -22 -25
-29 -19 -95 13 -139 11 -16 17 -29 13 -29 -4 0 1 -9 10 -19 10 -10 20 -43 23
-72 5 -51 3 -56 -32 -96 -21 -24 -41 -43 -46 -43 -10 0 -129 -121 -129 -131 0
-4 -16 -26 -35 -49 -19 -23 -35 -46 -35 -51 0 -6 -9 -19 -20 -31 -10 -12 -17
-25 -14 -30 3 -5 0 -15 -6 -23 -7 -8 -10 -21 -7 -29 3 -8 2 -16 -4 -18 -11 -4
-39 -97 -43 -145 -2 -18 -9 -39 -16 -47 -7 -9 -10 -22 -7 -30 3 -8 3 -17 -1
-20 -3 -4 -7 -17 -9 -29 -15 -101 -24 -141 -30 -146 -5 -3 -9 -13 -10 -21 -1
-8 -4 -28 -8 -44 -3 -15 -1 -34 5 -41 6 -8 9 -28 7 -44 -3 -18 -1 -31 5 -31 6
0 8 -7 5 -15 -4 -8 -3 -17 2 -19 9 -6 23 -145 23 -216 -1 -25 -6 -83 -12 -130
-5 -47 -10 -95 -10 -108 0 -13 -6 -33 -12 -45 -7 -12 -14 -42 -15 -67 -2 -40
-9 -95 -12 -95 -8 0 -47 -142 -45 -165 1 -16 -2 -30 -7 -30 -5 0 -9 -7 -9 -15
0 -8 -4 -15 -9 -15 -9 0 -29 -99 -33 -162 -1 -16 -6 -28 -11 -28 -4 0 -5 -4
-2 -10 3 -5 3 -16 -2 -22 -4 -7 -8 -21 -9 -30 -1 -10 -3 -19 -4 -20 -1 -2 -3
-15 -4 -30 -1 -15 -5 -30 -9 -34 -10 -10 -9 -54 1 -54 4 0 7 -26 6 -57 -1 -32
1 -62 4 -68 22 -36 -4 -95 -41 -95 -39 0 -110 -44 -135 -85 -15 -22 -27 -46
-28 -54 -3 -16 22 -43 52 -59 29 -15 199 -9 219 8 10 8 15 9 15 1 0 -6 7 -11
15 -11 8 0 22 -15 31 -32 16 -30 38 -52 152 -153 23 -20 42 -41 42 -46 0 -15
32 -43 85 -74 28 -16 52 -30 55 -30 3 0 15 -6 26 -13 22 -11 39 -62 22 -62 -5
0 -6 -4 -3 -10 3 -5 3 -16 -2 -22 -12 -21 -9 -62 7 -82 88 -112 142 -144 206
-123 27 9 57 79 59 137 2 65 6 69 78 64 34 -2 116 -6 182 -8 66 -2 139 -6 163
-9 23 -3 42 -2 42 2 0 4 24 7 53 6 28 0 60 3 70 8 11 5 23 4 32 -3 10 -8 15
-8 20 0 4 6 12 9 18 7 15 -5 107 21 125 35 6 6 12 8 12 4 0 -4 13 0 29 8 16 9
31 12 35 9 3 -4 6 -2 6 4 0 12 47 23 67 16 7 -3 13 -11 13 -18 0 -7 7 -16 16
-19 8 -3 13 -10 10 -14 -3 -5 4 -15 15 -22 10 -8 19 -20 19 -26 0 -23 73 -57
127 -59 63 -1 85 13 86 58 1 36 -30 117 -45 117 -4 0 -8 9 -8 20 0 11 -4 20
-9 20 -8 0 -27 40 -33 70 -2 8 -7 18 -12 21 -10 8 31 32 42 25 5 -3 21 6 38
20 16 14 24 23 17 20 -23 -12 -22 12 1 28 15 9 26 11 28 5 2 -6 29 17 61 49
52 55 72 82 48 68 -10 -7 -23 19 -14 28 4 3 12 1 20 -5 9 -9 13 -8 13 0 0 6
14 25 30 43 17 17 30 36 30 43 0 7 9 20 20 30 10 9 19 20 19 24 -2 16 15 50
27 55 8 3 14 12 14 21 0 8 5 15 10 15 6 0 9 3 9 8 -1 4 0 10 1 15 1 4 3 10 5
15 1 4 11 27 23 52 12 25 22 50 22 56 0 6 7 17 15 24 9 7 14 19 11 26 -3 7 -1
16 5 19 5 4 7 11 4 16 -4 5 -1 9 4 9 6 0 11 7 11 15 0 8 5 15 10 15 6 0 10 9
10 19 0 11 4 22 9 25 5 4 7 20 4 37 -2 17 1 37 8 45 6 8 8 14 4 14 -4 0 -2 7
5 15 6 8 9 19 6 24 -4 5 -2 12 4 16 15 9 34 86 32 133 -1 24 3 42 9 42 5 0 7
5 4 11 -4 5 0 18 8 27 8 9 15 24 16 32 12 129 22 195 31 198 6 2 16 10 24 17
7 8 16 11 20 8 3 -4 6 -1 6 5 0 7 3 11 8 10 8 -1 39 9 65 23 9 5 44 12 77 16
34 3 63 10 66 14 8 14 54 -9 85 -42 24 -26 33 -29 61 -24 18 3 42 7 53 8 11 2
25 6 31 9 6 4 26 5 45 2 19 -3 55 -7 81 -8 44 -2 48 0 63 29 20 44 37 56 73
51 18 -2 32 1 32 5 0 5 5 9 10 9 6 0 29 12 53 27 23 15 44 28 47 29 3 0 14 5
25 10 25 11 143 11 170 0 11 -5 31 -10 45 -11 14 -1 25 -3 25 -4 0 -3 25 -9
60 -16 53 -11 150 -41 153 -48 2 -4 8 -5 13 -1 5 3 22 -4 39 -16 16 -11 44
-26 62 -32 18 -6 52 -28 76 -49 24 -21 49 -36 56 -33 8 3 16 -2 19 -10 4 -9
12 -16 19 -16 7 0 19 -9 26 -20 7 -11 21 -20 32 -20 11 0 20 -5 20 -12 0 -6 3
-8 7 -5 3 4 16 1 27 -6 12 -8 50 -20 86 -27 36 -7 70 -16 75 -19 35 -20 215
35 215 65 0 7 10 21 23 31 28 22 82 93 72 93 -5 0 0 9 10 20 10 11 14 20 9 20
-5 0 -4 4 2 8 11 7 74 134 74 149 0 5 8 19 17 33 15 22 22 58 23 118 0 12 5
22 11 22 6 0 8 13 6 29 -3 16 -2 32 1 36 32 32 38 469 7 529 -8 14 -12 35 -10
46 2 11 -1 22 -6 26 -5 3 -7 14 -4 25 4 10 2 19 -3 19 -5 0 -13 20 -16 44 -4
24 -13 50 -21 56 -8 7 -12 16 -9 21 3 5 2 15 -3 22 -4 6 -8 19 -8 28 0 9 -5
22 -11 30 -6 8 -18 32 -25 54 -8 22 -18 43 -24 47 -5 4 -7 8 -2 8 17 0 -77
153 -123 200 -18 18 -101 56 -113 52 -5 -1 -14 1 -21 6 -13 9 -43 9 -67 -2
-10 -4 -23 -6 -30 -5 -8 1 -21 0 -29 -4 -8 -3 -32 -11 -52 -17 -21 -6 -38 -16
-38 -21 0 -5 -4 -8 -9 -7 -9 3 -109 -79 -153 -127 -15 -16 -28 -27 -28 -23 0
4 -13 -6 -28 -20 -16 -15 -41 -36 -56 -47 -15 -11 -38 -30 -51 -43 -14 -13
-25 -20 -25 -16 0 4 -10 -2 -22 -13 -33 -29 -109 -75 -115 -69 -3 3 -22 -5
-42 -18 -41 -26 -73 -40 -83 -38 -5 1 -8 -2 -8 -6 0 -5 -6 -9 -12 -9 -7 0 -29
-7 -48 -15 -19 -8 -48 -21 -65 -28 -16 -8 -34 -13 -39 -11 -4 1 -14 -3 -22
-10 -7 -6 -18 -8 -24 -4 -5 3 -10 1 -10 -4 0 -6 -6 -11 -12 -11 -7 0 -40 -12
-73 -26 -58 -24 -84 -33 -115 -39 -8 -1 -23 -6 -33 -10 -9 -4 -34 -4 -55 0
-53 11 -109 10 -124 -2 -13 -10 -44 -24 -63 -28 -9 -3 -24 -11 -122 -70 -18
-11 -33 -24 -33 -29 0 -18 -82 -86 -104 -86 -12 0 -35 -14 -52 -31 -29 -30
-29 -32 -29 -147 0 -98 3 -122 19 -144 10 -16 26 -28 35 -28 10 0 25 -6 34
-13 16 -11 16 -14 2 -35 -9 -12 -23 -22 -31 -22 -8 0 -14 -5 -14 -11 0 -5 -4
-8 -9 -5 -5 4 -21 -7 -34 -24 -14 -16 -31 -30 -37 -30 -6 0 -9 -4 -5 -10 3 -5
-7 -22 -22 -39 -23 -24 -32 -28 -50 -21 -17 7 -23 18 -23 40 0 16 4 30 8 30
12 0 7 117 -5 132 -6 7 -14 54 -18 105 -8 99 -9 96 58 148 14 11 26 26 27 33
0 6 5 12 12 12 6 0 8 3 5 7 -4 3 0 17 8 30 9 13 13 28 10 33 -3 6 -2 10 3 10
5 0 12 22 15 49 3 26 14 63 25 82 10 19 18 42 16 52 -1 9 1 17 5 17 4 0 7 11
7 25 0 14 -3 25 -6 25 -9 0 -6 63 3 75 4 6 16 21 27 34 11 13 20 27 21 30 0 3
2 14 4 24 2 9 -1 15 -6 11 -5 -3 -9 2 -9 10 0 16 -50 47 -84 53 -25 4 -56 32
-56 50 0 7 -3 13 -7 13 -5 0 -26 17 -48 38 -22 20 -45 38 -52 39 -6 1 -26 5
-45 9 -18 4 -57 7 -85 8 -29 1 -53 4 -53 9 0 4 -5 7 -11 7 -7 0 -48 24 -93 54
-153 101 -205 132 -238 141 -5 2 -9 3 -10 5 -2 1 -10 3 -19 5 -9 1 -41 15 -72
30 -42 21 -57 34 -58 49 -1 34 -7 120 -10 134 -1 6 -6 12 -11 12 -5 0 -7 4 -4
8 3 5 -8 20 -24 35 -27 26 -64 33 -111 20z"/>
</g>
</svg>
